<?xml version="1.0" encoding="utf-8"?>
<svg viewBox="11.355 150.55 108 32.995" width="108" height="32.995" xmlns="http://www.w3.org/2000/svg">
  <defs>
    <clipPath id="_clipPath_ExHkZ7m05wbfhYE9fUdYTnbeAY4xahIR">
      <rect width="108" height="35"/>
    </clipPath>
  </defs>
  <g clip-path="url(#_clipPath_ExHkZ7m05wbfhYE9fUdYTnbeAY4xahIR)" transform="matrix(1, 0, 0, 1, 11.355256, 150.550249)">
    <g>
      <g transform="matrix(1, 0, 0, 1, 0.692612, -1.246704)">
        <path d=" M 29.894 9.22 L 15.447 0.879 L 1 9.22 L 1 25.902 L 5.816 28.682 L 5.816 12 L 15.447 6.44 L 25.078 12 L 25.078 28.682 L 29.894 25.902 L 29.894 9.22 Z " fill="rgb(21,114,232)"/>
        <path d=" M 20.262 14.781 L 15.447 12 L 10.631 14.781 L 10.631 20.341 L 15.447 23.121 L 20.262 20.341 L 20.262 14.781 Z " fill="rgb(21,114,232)"/>
        <path d=" M 20.262 25.902 L 15.447 28.682 L 10.631 25.902 L 10.631 31.462 L 15.447 34.242 L 20.262 31.462 L 20.262 25.902 Z " fill="rgb(21,114,232)"/>
      </g>
      <path d="M 41.256 14.011 L 48.388 14.011 L 48.388 9.433 L 50.42 9.433 L 50.42 20.636 L 48.388 20.636 L 48.388 16.058 L 41.256 16.058 L 41.256 20.636 L 39.224 20.636 L 39.224 9.433 L 41.256 9.433 Z" style="fill: rgb(21, 114, 232); white-space: pre;"/>
      <path d="M 63.459 13.183 Q 63.459 13.878 63.283 14.425 Q 63.107 14.972 62.818 15.39 Q 62.529 15.808 62.142 16.105 Q 61.756 16.402 61.341 16.593 Q 60.927 16.784 60.502 16.87 Q 60.076 16.956 59.701 16.956 L 58.881 16.956 L 58.881 20.636 L 56.834 20.636 L 56.834 16.956 L 56.021 16.956 Q 55.646 16.956 55.22 16.87 Q 54.795 16.784 54.377 16.593 Q 53.959 16.402 53.576 16.105 Q 53.193 15.808 52.9 15.39 Q 52.607 14.972 52.431 14.421 Q 52.256 13.87 52.256 13.183 L 52.256 9.433 L 54.287 9.433 L 54.287 13.183 Q 54.287 13.581 54.412 13.898 Q 54.537 14.214 54.763 14.441 Q 54.99 14.667 55.314 14.788 Q 55.638 14.909 56.037 14.909 L 59.701 14.909 Q 59.99 14.863 60.295 14.788 Q 60.599 14.714 60.849 14.534 Q 61.099 14.355 61.263 14.034 Q 61.427 13.714 61.427 13.183 L 61.427 9.433 L 63.459 9.433 Z" style="fill: rgb(21, 114, 232); white-space: pre;"/>
      <path d="M 76.441 14.12 Q 76.441 14.816 76.269 15.363 Q 76.097 15.909 75.804 16.327 Q 75.511 16.745 75.129 17.042 Q 74.746 17.339 74.328 17.527 Q 73.91 17.714 73.484 17.8 Q 73.058 17.886 72.683 17.886 L 68.09 17.886 L 68.09 15.855 L 72.683 15.855 Q 73.074 15.823 73.39 15.695 Q 73.707 15.566 73.933 15.347 Q 74.16 15.128 74.285 14.82 Q 74.41 14.511 74.41 14.12 L 74.41 13.198 Q 74.371 12.816 74.246 12.495 Q 74.121 12.175 73.906 11.948 Q 73.691 11.722 73.386 11.593 Q 73.082 11.464 72.683 11.464 L 68.105 11.464 Q 67.699 11.464 67.488 11.675 Q 67.277 11.886 67.277 12.284 L 67.277 20.636 L 65.246 20.636 L 65.246 12.284 Q 65.246 11.503 65.531 10.956 Q 65.816 10.409 66.242 10.073 Q 66.668 9.738 67.168 9.585 Q 67.668 9.433 68.09 9.433 L 72.683 9.433 Q 73.371 9.433 73.918 9.609 Q 74.465 9.784 74.883 10.077 Q 75.301 10.37 75.594 10.753 Q 75.886 11.136 76.078 11.554 Q 76.269 11.972 76.355 12.398 Q 76.441 12.823 76.441 13.198 Z" style="fill: rgb(21, 114, 232); white-space: pre;"/>
      <path d="M 87.391 16.058 L 80.977 16.058 L 80.977 14.011 L 87.391 14.011 Z M 88.305 20.636 L 80.977 20.636 Q 80.555 20.636 80.055 20.488 Q 79.555 20.339 79.129 19.999 Q 78.703 19.659 78.418 19.116 Q 78.133 18.573 78.133 17.784 L 78.133 10.456 Q 78.133 10.245 78.211 10.058 Q 78.289 9.87 78.426 9.73 Q 78.563 9.589 78.75 9.511 Q 78.938 9.433 79.157 9.433 L 88.305 9.433 L 88.305 11.464 L 80.164 11.464 L 80.164 17.784 Q 80.164 18.183 80.375 18.394 Q 80.586 18.605 80.993 18.605 L 88.305 18.605 Z" style="fill: rgb(21, 114, 232); white-space: pre;"/>
      <path d="M 95.375 13.433 L 98.797 9.433 L 101.57 9.433 L 96.75 15.05 L 101.539 20.636 L 98.781 20.636 L 95.375 16.667 L 91.984 20.636 L 89.219 20.636 L 94 15.05 L 89.203 9.433 L 91.953 9.433 Z" style="fill: rgb(21, 114, 232); white-space: pre;"/>
      <text style="white-space: pre; fill: rgb(51, 51, 51); font-family: Arial, sans-serif; font-size: 2.6px;" x="52.389" y="4.463"> </text>
    </g>
    <text style="white-space: pre; fill: rgb(51, 51, 51); font-family: Arial, sans-serif; font-size: 4.8px;" x="78.576" y="-8.607">Enter your text here</text>
    <text style="white-space: pre; fill: rgb(51, 51, 51); font-family: Arial, sans-serif; font-size: 4.8px;" x="63.062" y="-9.715">Enter your text here</text>
    <text style="white-space: pre; fill: rgb(51, 51, 51); font-family: Arial, sans-serif; font-size: 4.8px;" x="50.872" y="-26.753">Enter your text here</text>
    <text style="white-space: pre; fill: rgb(51, 51, 51); font-family: Arial, sans-serif; font-size: 4.8px;" x="-4.676" y="-10.823">Enter your text here</text>
    <text style="white-space: pre; fill: rgb(51, 51, 51); font-family: Arial, sans-serif; font-size: 2.6px;" x="51.696" y="5.71" transform="matrix(1, 0, 0, 1, 12.610998, -17.105819)"> </text>
    <text style="white-space: pre; fill: rgb(51, 51, 51); font-family: Arial, sans-serif; font-size: 2.6px;" x="51.696" y="5.71" transform="matrix(1, 0, 0, 1, 12.610998, -17.105819)"> </text>
  </g>
</svg>