<?xml version="1.0" encoding="utf-8"?>
<svg viewBox="13.048 150.183 106.529 33.363" width="106.529" height="33.363" xmlns="http://www.w3.org/2000/svg">
  <g transform="matrix(1, 0, 0, 1, 12.047868, 149.303545)">
    <path d=" M 29.894 9.22 L 15.447 0.879 L 1 9.22 L 1 25.902 L 5.816 28.682 L 5.816 12 L 15.447 6.44 L 25.078 12 L 25.078 28.682 L 29.894 25.902 L 29.894 9.22 Z " style="fill: rgb(255, 255, 255);"/>
    <path d=" M 20.262 14.781 L 15.447 12 L 10.631 14.781 L 10.631 20.341 L 15.447 23.121 L 20.262 20.341 L 20.262 14.781 Z " style="fill: rgb(255, 255, 255);"/>
    <path d=" M 20.262 25.902 L 15.447 28.682 L 10.631 25.902 L 10.631 31.462 L 15.447 34.242 L 20.262 31.462 L 20.262 25.902 Z " style="fill: rgb(255, 255, 255);"/>
  </g>
  <path d="M 36.899 14.584 L 45.815 14.584 L 45.815 8.861 L 48.354 8.861 L 48.354 22.865 L 45.815 22.865 L 45.815 17.142 L 36.899 17.142 L 36.899 22.865 L 34.36 22.865 L 34.36 8.861 L 36.899 8.861 Z" transform="matrix(0.905637, 0, 0, 1, 17.741905, 150.315582)" style="fill: rgb(255, 255, 255); white-space: pre;"/>
  <path d="M 64.649 13.549 Q 64.649 14.418 64.43 15.101 Q 64.21 15.785 63.849 16.307 Q 63.487 16.83 63.004 17.201 Q 62.52 17.572 62.003 17.811 Q 61.485 18.051 60.953 18.158 Q 60.421 18.265 59.952 18.265 L 58.927 18.265 L 58.927 22.865 L 56.368 22.865 L 56.368 18.265 L 55.352 18.265 Q 54.884 18.265 54.352 18.158 Q 53.819 18.051 53.297 17.811 Q 52.774 17.572 52.296 17.201 Q 51.817 16.83 51.451 16.307 Q 51.085 15.785 50.865 15.096 Q 50.645 14.408 50.645 13.549 L 50.645 8.861 L 53.185 8.861 L 53.185 13.549 Q 53.185 14.047 53.341 14.442 Q 53.497 14.838 53.78 15.121 Q 54.063 15.404 54.469 15.555 Q 54.874 15.707 55.372 15.707 L 59.952 15.707 Q 60.313 15.648 60.694 15.555 Q 61.075 15.463 61.388 15.238 Q 61.7 15.013 61.905 14.613 Q 62.11 14.213 62.11 13.549 L 62.11 8.861 L 64.649 8.861 Z" transform="matrix(0.905637, 0, 0, 1, 17.741905, 150.315582)" style="fill: rgb(255, 255, 255); white-space: pre;"/>
  <path d="M 80.884 14.72 Q 80.884 15.59 80.669 16.273 Q 80.454 16.957 80.088 17.479 Q 79.722 18.002 79.243 18.373 Q 78.765 18.744 78.242 18.978 Q 77.72 19.213 77.188 19.32 Q 76.655 19.427 76.187 19.427 L 70.444 19.427 L 70.444 16.888 L 76.187 16.888 Q 76.675 16.849 77.07 16.688 Q 77.466 16.527 77.749 16.254 Q 78.032 15.98 78.189 15.594 Q 78.345 15.209 78.345 14.72 L 78.345 13.568 Q 78.296 13.09 78.14 12.689 Q 77.983 12.289 77.715 12.006 Q 77.446 11.722 77.066 11.561 Q 76.685 11.4 76.187 11.4 L 70.464 11.4 Q 69.956 11.4 69.692 11.664 Q 69.429 11.927 69.429 12.426 L 69.429 22.865 L 66.89 22.865 L 66.89 12.426 Q 66.89 11.449 67.246 10.765 Q 67.603 10.082 68.135 9.662 Q 68.667 9.242 69.292 9.052 Q 69.917 8.861 70.444 8.861 L 76.187 8.861 Q 77.046 8.861 77.73 9.081 Q 78.413 9.301 78.936 9.667 Q 79.458 10.033 79.824 10.511 Q 80.191 10.99 80.43 11.512 Q 80.669 12.035 80.776 12.567 Q 80.884 13.099 80.884 13.568 Z" transform="matrix(0.905637, 0, 0, 1, 17.741905, 150.315582)" style="fill: rgb(255, 255, 255); white-space: pre;"/>
  <path d="M 94.56 17.142 L 86.542 17.142 L 86.542 14.584 L 94.56 14.584 Z M 95.702 22.865 L 86.542 22.865 Q 86.015 22.865 85.39 22.679 Q 84.765 22.494 84.233 22.069 Q 83.7 21.644 83.344 20.966 Q 82.987 20.287 82.987 19.301 L 82.987 10.14 Q 82.987 9.877 83.085 9.642 Q 83.183 9.408 83.354 9.232 Q 83.525 9.056 83.759 8.959 Q 83.993 8.861 84.267 8.861 L 95.702 8.861 L 95.702 11.4 L 85.526 11.4 L 85.526 19.301 Q 85.526 19.799 85.79 20.062 Q 86.054 20.326 86.562 20.326 L 95.702 20.326 Z" transform="matrix(0.905637, 0, 0, 1, 17.741905, 150.315582)" style="fill: rgb(255, 255, 255); white-space: pre;"/>
  <path d="M 104.551 13.861 L 108.828 8.861 L 112.295 8.861 L 106.269 15.883 L 112.256 22.865 L 108.809 22.865 L 104.551 17.904 L 100.312 22.865 L 96.855 22.865 L 102.832 15.883 L 96.836 8.861 L 100.273 8.861 Z" transform="matrix(0.905637, 0, 0, 1, 17.741905, 150.315582)" style="fill: rgb(255, 255, 255); white-space: pre;"/>
  <text style="fill: rgb(255, 255, 255); font-family: Arial, sans-serif; font-size: 2.6px; white-space: pre;" x="52.389" y="4.463" transform="matrix(1, 0, 0, 1, 11.355256, 150.550249)"> </text>
</svg>